<svg data-v-423bf9ae="" xmlns="http://www.w3.org/2000/svg" viewBox="0 0 368.20407072954623 60" class="font"><!----><!----><defs data-v-423bf9ae=""><linearGradient data-v-423bf9ae="" gradientTransform="rotate(25)" id="15573d8d-3e42-475f-9b05-cda408ea0380" x1="0%" y1="0%" x2="100%" y2="0%"><stop data-v-423bf9ae="" offset="0%" style="stop-color: rgb(0, 196, 204); stop-opacity: 1;"></stop><stop data-v-423bf9ae="" offset="100%" style="stop-color: rgb(124, 42, 232); stop-opacity: 1;"></stop></linearGradient></defs><g data-v-423bf9ae="" id="cfccae28-5f71-4207-8285-5f9b00bf875a" fill="url(#15573d8d-3e42-475f-9b05-cda408ea0380)" transform="matrix(6.1224488604322,0,0,6.1224488604322,-0.000007471706709338832,-23.142856755687625)"><path d="M0 13.58L7 13.58L7 3.78L0 3.78ZM3.50 8.05L1.12 4.48L5.88 4.48ZM3.92 8.68L6.30 5.11L6.30 12.25ZM1.12 12.88L3.50 9.31L5.88 12.88ZM0.70 5.11L3.08 8.68L0.70 12.25ZM7 13.58L14 13.58L14 3.78L7 3.78ZM10.50 8.05L8.12 4.48L12.88 4.48ZM10.92 8.68L13.30 5.11L13.30 12.25ZM8.12 12.88L10.50 9.31L12.88 12.88ZM7.70 5.11L10.08 8.68L7.70 12.25ZM22.65 11.62L17.86 11.62L22.60 5.87L22.60 3.92L15.13 3.92L15.13 5.88L19.52 5.88L14.74 11.68L14.74 13.58L22.65 13.58ZM31.72 11.62L26.94 11.62L31.67 5.87L31.67 3.92L24.21 3.92L24.21 5.88L28.59 5.88L23.81 11.68L23.81 13.58L31.72 13.58ZM32.14 13.58L39.14 13.58L39.14 3.78L32.14 3.78ZM35.64 8.05L33.26 4.48L38.02 4.48ZM36.06 8.68L38.44 5.11L38.44 12.25ZM33.26 12.88L35.64 9.31L38.02 12.88ZM32.84 5.11L35.22 8.68L32.84 12.25ZM39.14 13.58L46.14 13.58L46.14 3.78L39.14 3.78ZM42.64 8.05L40.26 4.48L45.02 4.48ZM43.06 8.68L45.44 5.11L45.44 12.25ZM40.26 12.88L42.64 9.31L45.02 12.88ZM39.84 5.11L42.22 8.68L39.84 12.25ZM46.14 13.58L53.14 13.58L53.14 3.78L46.14 3.78ZM49.64 8.05L47.26 4.48L52.02 4.48ZM50.06 8.68L52.44 5.11L52.44 12.25ZM47.26 12.88L49.64 9.31L52.02 12.88ZM46.84 5.11L49.22 8.68L46.84 12.25ZM53.14 13.58L60.14 13.58L60.14 3.78L53.14 3.78ZM56.64 8.05L54.26 4.48L59.02 4.48ZM57.06 8.68L59.44 5.11L59.44 12.25ZM54.26 12.88L56.64 9.31L59.02 12.88ZM53.84 5.11L56.22 8.68L53.84 12.25Z"></path></g><!----><!----></svg>